<?xml version="1.0" standalone="no"?>
<!DOCTYPE svg PUBLIC "-//W3C//DTD SVG 20010904//EN"
 "http://www.w3.org/TR/2001/REC-SVG-20010904/DTD/svg10.dtd">
<svg version="1.0" xmlns="http://www.w3.org/2000/svg"
 width="512.000000pt" height="512.000000pt" viewBox="0 0 512.000000 512.000000"
 preserveAspectRatio="xMidYMid meet">
<metadata>
Created by potrace 1.11, written by Peter Selinger 2001-2013
</metadata>
<g transform="translate(0.000000,512.000000) scale(0.100000,-0.100000)"
fill="#000000" stroke="none">
<path d="M2210 4868 c-19 -5 -52 -14 -72 -19 -36 -9 -36 -10 -27 -42 5 -17 27
-99 49 -181 21 -81 42 -152 47 -157 6 -6 225 45 241 56 1 1 -24 56 -56 121
-33 65 -71 145 -86 177 -29 60 -34 63 -96 45z"/>
<path d="M1315 4683 c-1 -21 -4 -59 -7 -84 -7 -56 -5 -58 52 -94 25 -15 73
-57 108 -92 l63 -64 -23 -41 c-27 -48 -81 -97 -178 -162 -90 -61 -171 -140
-199 -194 -32 -62 -53 -157 -53 -237 -1 -203 40 -268 262 -425 169 -119 268
-232 253 -289 -6 -24 -7 -24 -53 -11 -145 42 -269 27 -341 -40 -34 -32 -47
-56 -83 -161 -24 -68 -82 -230 -128 -359 -84 -231 -146 -404 -255 -710 -30
-85 -71 -198 -90 -250 -20 -52 -61 -169 -93 -260 -32 -91 -103 -289 -157 -440
-126 -346 -127 -350 -111 -407 19 -71 100 -131 169 -127 34 1 190 53 484 159
72 26 139 50 150 55 29 12 116 43 230 83 55 19 172 61 260 92 88 32 273 98
410 147 463 166 690 247 745 268 30 11 88 25 128 30 39 5 85 16 102 25 152 79
154 304 5 606 -25 51 -44 93 -43 95 11 10 160 21 248 18 97 -3 271 -35 343
-63 27 -11 35 -25 18 -36 -15 -8 -49 -108 -57 -162 -11 -82 -7 -225 9 -286 31
-116 118 -201 251 -246 152 -52 284 -2 326 124 21 61 22 65 25 146 7 133 -51
269 -161 384 l-61 65 37 10 c118 32 317 32 422 0 134 -40 267 -127 379 -248
49 -53 69 -77 112 -136 13 -17 14 -15 20 25 4 24 9 58 12 76 8 41 -8 70 -89
165 -137 160 -265 256 -404 302 -83 28 -109 31 -247 30 -145 -1 -254 -23 -360
-72 l-59 -28 -66 32 c-89 44 -147 63 -270 90 -89 19 -128 22 -250 20 -98 -3
-164 -9 -205 -21 -33 -9 -65 -18 -71 -19 -7 0 -45 43 -86 96 -97 127 -161 200
-281 323 -97 98 -99 100 -103 155 -8 89 -31 142 -115 271 -43 67 -84 140 -90
163 -39 145 59 343 226 454 26 17 52 32 55 32 4 0 10 -25 14 -56 10 -86 28
-133 68 -179 81 -92 219 -81 269 21 30 62 33 240 5 322 -33 97 -126 156 -225
145 -42 -5 -43 -5 -30 18 41 77 185 191 315 249 124 56 357 113 489 119 6 1
10 38 10 97 l0 96 -75 -6 c-264 -21 -520 -136 -664 -298 -51 -57 -131 -206
-142 -264 -5 -27 -14 -39 -43 -54 -132 -67 -246 -229 -281 -400 -23 -109 -25
-327 -4 -408 16 -61 60 -152 123 -256 23 -36 39 -66 37 -66 -1 0 -14 10 -27
21 -143 126 -346 262 -510 342 l-127 62 -1 72 c-2 171 -50 259 -204 373 -45
33 -87 65 -94 70 -7 6 -15 10 -18 10 -9 0 -84 59 -133 105 -24 22 -52 57 -63
78 l-19 37 34 53 c45 70 93 113 205 187 130 86 170 130 198 217 16 51 26 256
13 283 -4 8 -19 40 -33 70 -31 68 -82 128 -144 169 -25 17 -49 31 -52 31 -3 0
-6 -17 -6 -37z m1391 -1179 c17 -8 40 -28 52 -43 21 -29 21 -29 1 -54 -41 -53
-148 -61 -214 -16 -29 19 -75 77 -75 94 0 5 90 33 120 37 36 6 80 -2 116 -18z
m1078 -1884 c42 -27 102 -76 134 -109 55 -56 122 -162 122 -193 0 -8 -15 -29
-32 -48 -127 -130 -380 -80 -483 95 -34 59 -34 73 -5 131 35 68 141 173 176
174 6 0 46 -22 88 -50z"/>
<path d="M705 4424 c-64 -14 -132 -26 -152 -27 -7 0 -13 -4 -13 -9 0 -8 124
-326 142 -364 10 -21 12 -21 76 -8 119 25 115 23 108 48 -3 13 -8 41 -11 62
-3 21 -8 46 -11 54 -3 8 -8 33 -11 55 -15 109 -39 200 -53 201 -8 1 -42 -4
-75 -12z"/>
<path d="M4220 4261 c-63 -46 -197 -140 -245 -171 -28 -19 -29 -17 67 -151
l68 -96 88 91 c178 183 212 221 207 234 -11 29 -98 142 -108 142 -7 -1 -41
-22 -77 -49z"/>
<path d="M4438 3434 c-60 -18 -104 -62 -121 -122 -15 -49 -16 -180 -2 -264 5
-36 3 -53 -11 -77 -17 -29 -61 -55 -94 -56 -44 -1 -150 33 -280 89 -164 72
-237 96 -287 96 -80 0 -129 -58 -184 -220 -38 -113 -57 -149 -105 -200 -93
-99 -228 -111 -394 -33 -122 57 -120 56 -119 31 1 -13 -2 -53 -6 -89 -8 -77
-11 -72 100 -127 187 -93 301 -91 404 7 46 44 77 95 136 231 102 233 155 248
422 122 81 -39 171 -77 198 -84 120 -34 202 0 230 95 22 73 22 194 0 303 -6
29 58 91 109 105 88 24 207 14 342 -29 l61 -19 7 60 c11 111 9 126 -21 138
-134 51 -299 69 -385 43z"/>
</g>
</svg>
